<mxfile host="app.diagrams.net" agent="Mozilla/5.0 (Windows NT 10.0; Win64; x64) AppleWebKit/537.36 (KHTML, like Gecko) Chrome/140.0.0.0 Safari/537.36" version="28.2.1">
  <diagram name="Page-1" id="b9UFh0RMMuQCNNjzs8wQ">
    <mxGraphModel dx="786" dy="498" grid="1" gridSize="10" guides="1" tooltips="1" connect="1" arrows="1" fold="1" page="1" pageScale="1" pageWidth="583" pageHeight="827" math="0" shadow="0">
      <root>
        <mxCell id="0" />
        <mxCell id="1" parent="0" />
        <mxCell id="dGhStu9_GfDLZGVDIshM-2" style="edgeStyle=orthogonalEdgeStyle;rounded=0;orthogonalLoop=1;jettySize=auto;html=1;" parent="1" edge="1">
          <mxGeometry relative="1" as="geometry">
            <mxPoint x="280" y="427" as="targetPoint" />
            <mxPoint x="240" y="427" as="sourcePoint" />
          </mxGeometry>
        </mxCell>
        <mxCell id="dGhStu9_GfDLZGVDIshM-17" value="" style="edgeStyle=orthogonalEdgeStyle;rounded=0;orthogonalLoop=1;jettySize=auto;html=1;" parent="1" edge="1">
          <mxGeometry relative="1" as="geometry">
            <mxPoint x="160" y="420" as="sourcePoint" />
            <mxPoint x="110" y="421" as="targetPoint" />
          </mxGeometry>
        </mxCell>
        <mxCell id="TigTuKabIQQMazamRU1V-1" value="ROUTER&#xa;DYNAMIC IP" style="fillColorStyles=neutralFill;neutralFill=#9DA6A8;shape=mxgraph.networks2.icon;aspect=fixed;fillColor=#EDEDED;strokeColor=#000000;gradientColor=#5B6163;network2IconShadow=1;network2bgFillColor=none;labelPosition=center;verticalLabelPosition=bottom;align=center;verticalAlign=top;network2Icon=mxgraph.networks2.router;network2IconXOffset=0.0001;network2IconYOffset=-0.1142;network2IconW=1;network2IconH=0.5485;" parent="1" vertex="1">
          <mxGeometry x="180" y="407" width="36.46" height="20" as="geometry" />
        </mxCell>
        <mxCell id="dGhStu9_GfDLZGVDIshM-4" style="edgeStyle=orthogonalEdgeStyle;rounded=0;orthogonalLoop=1;jettySize=auto;html=1;" parent="1" edge="1">
          <mxGeometry relative="1" as="geometry">
            <mxPoint x="400" y="426.80499999999995" as="targetPoint" />
            <mxPoint x="360" y="426.73" as="sourcePoint" />
          </mxGeometry>
        </mxCell>
        <mxCell id="dGhStu9_GfDLZGVDIshM-1" value="Access PointÂ &#xa;(AP) mode&#xa;" style="fillColorStyles=neutralFill;neutralFill=#9DA6A8;shape=mxgraph.networks2.icon;aspect=fixed;fillColor=#EDEDED;strokeColor=#000000;gradientColor=#5B6163;network2IconShadow=1;network2bgFillColor=none;labelPosition=center;verticalLabelPosition=bottom;align=center;verticalAlign=top;network2Icon=mxgraph.networks2.modem;network2IconYOffset=0.0131;network2IconW=1;network2IconH=0.2938;" parent="1" vertex="1">
          <mxGeometry x="290" y="419.73" width="50" height="14.69" as="geometry" />
        </mxCell>
        <mxCell id="dGhStu9_GfDLZGVDIshM-5" style="edgeStyle=orthogonalEdgeStyle;rounded=0;orthogonalLoop=1;jettySize=auto;html=1;" parent="1" edge="1">
          <mxGeometry relative="1" as="geometry">
            <mxPoint x="447" y="340" as="targetPoint" />
            <mxPoint x="447" y="390" as="sourcePoint" />
          </mxGeometry>
        </mxCell>
        <mxCell id="dGhStu9_GfDLZGVDIshM-6" style="edgeStyle=orthogonalEdgeStyle;rounded=0;orthogonalLoop=1;jettySize=auto;html=1;" parent="1" edge="1">
          <mxGeometry relative="1" as="geometry">
            <mxPoint x="448.745" y="537" as="targetPoint" />
            <mxPoint x="448.65999999999997" y="487" as="sourcePoint" />
          </mxGeometry>
        </mxCell>
        <mxCell id="dGhStu9_GfDLZGVDIshM-3" value="LAN&#xa;connection" style="shape=mxgraph.networks2.icon;aspect=fixed;fillColor=#EDEDED;strokeColor=#000000;gradientColor=#5B6163;network2IconShadow=1;network2bgFillColor=none;labelPosition=center;verticalLabelPosition=bottom;align=center;verticalAlign=top;network2Icon=mxgraph.networks2.lan;network2IconYOffset=0.0558;network2IconW=1.0834;network2IconH=0.7564;" parent="1" vertex="1">
          <mxGeometry x="419.83" y="408.15999999999997" width="54.169999999999995" height="37.82" as="geometry" />
        </mxCell>
        <mxCell id="dGhStu9_GfDLZGVDIshM-7" value="ISP&#xa;(TIME WIFI)" style="shape=mxgraph.networks2.icon;aspect=fixed;fillColor=#EDEDED;strokeColor=#000000;gradientColor=#5B6163;network2IconShadow=1;network2bgFillColor=none;labelPosition=center;verticalLabelPosition=bottom;align=center;verticalAlign=top;network2Icon=mxgraph.networks2.antenna;network2IconYOffset=0.0004;network2IconW=0.508;network2IconH=0.9997;" parent="1" vertex="1">
          <mxGeometry x="185.53000000000003" y="269" width="25.4" height="49.985" as="geometry" />
        </mxCell>
        <mxCell id="dGhStu9_GfDLZGVDIshM-8" style="edgeStyle=orthogonalEdgeStyle;rounded=0;orthogonalLoop=1;jettySize=auto;html=1;entryX=0.489;entryY=-0.071;entryDx=0;entryDy=0;entryPerimeter=0;" parent="1" target="TigTuKabIQQMazamRU1V-1" edge="1">
          <mxGeometry relative="1" as="geometry">
            <mxPoint x="198" y="357" as="sourcePoint" />
          </mxGeometry>
        </mxCell>
        <mxCell id="dGhStu9_GfDLZGVDIshM-15" value="" style="edgeStyle=orthogonalEdgeStyle;rounded=0;orthogonalLoop=1;jettySize=auto;html=1;" parent="1" edge="1">
          <mxGeometry relative="1" as="geometry">
            <mxPoint x="449" y="270" as="sourcePoint" />
            <mxPoint x="449" y="250" as="targetPoint" />
          </mxGeometry>
        </mxCell>
        <mxCell id="dGhStu9_GfDLZGVDIshM-9" value="PROXMOX &#xa;SERVER" style="fillColorStyles=neutralFill;neutralFill=#9DA6A8;shape=mxgraph.networks2.icon;aspect=fixed;fillColor=#EDEDED;strokeColor=#000000;gradientColor=#5B6163;network2IconShadow=1;network2bgFillColor=none;labelPosition=center;verticalLabelPosition=bottom;align=center;verticalAlign=top;network2Icon=mxgraph.networks2.server;network2IconW=1.0001;network2IconH=0.5812;" parent="1" vertex="1">
          <mxGeometry x="423.99999999999994" y="279.46" width="50.005" height="29.060000000000002" as="geometry" />
        </mxCell>
        <mxCell id="dGhStu9_GfDLZGVDIshM-11" value="LAPTOP" style="shape=mxgraph.networks2.icon;aspect=fixed;fillColor=#EDEDED;strokeColor=#000000;gradientColor=#5B6163;network2IconShadow=1;network2bgFillColor=none;labelPosition=center;verticalLabelPosition=bottom;align=center;verticalAlign=top;network2Icon=mxgraph.networks2.monitor;network2IconYOffset=-0.009;network2IconW=1;network2IconH=0.742;" parent="1" vertex="1">
          <mxGeometry x="421.91" y="547.4" width="50" height="37.1" as="geometry" />
        </mxCell>
        <mxCell id="dGhStu9_GfDLZGVDIshM-14" value="VIRTUAL MACHINE" style="swimlane;whiteSpace=wrap;html=1;startSize=23;" parent="1" vertex="1">
          <mxGeometry x="80" y="40" width="469" height="200" as="geometry" />
        </mxCell>
        <mxCell id="dGhStu9_GfDLZGVDIshM-21" value="WIREGUARD VPN" style="sketch=0;pointerEvents=1;shadow=0;dashed=0;html=1;strokeColor=none;fillColor=#DF8C42;labelPosition=center;verticalLabelPosition=bottom;verticalAlign=top;align=center;outlineConnect=0;shape=mxgraph.veeam2.wireguard;" parent="dGhStu9_GfDLZGVDIshM-14" vertex="1">
          <mxGeometry x="391.90999999999997" y="70" width="34" height="34" as="geometry" />
        </mxCell>
        <mxCell id="Oh-FlaK5hu01LJMrxgQo-1" value="AAPANEL&lt;div&gt;server&lt;/div&gt;" style="sketch=0;outlineConnect=0;fontColor=#232F3E;gradientColor=none;fillColor=#232F3D;strokeColor=none;dashed=0;verticalLabelPosition=bottom;verticalAlign=top;align=center;html=1;fontSize=12;fontStyle=0;aspect=fixed;pointerEvents=1;shape=mxgraph.aws4.traditional_server;" vertex="1" parent="dGhStu9_GfDLZGVDIshM-14">
          <mxGeometry x="20" y="48" width="45" height="78" as="geometry" />
        </mxCell>
        <mxCell id="dGhStu9_GfDLZGVDIshM-16" value="&lt;span style=&quot;background-color: light-dark(rgb(255, 255, 255), rgb(18, 18, 18)); color: light-dark(rgb(0, 0, 0), rgb(255, 255, 255));&quot;&gt;DMZ&amp;nbsp;&lt;/span&gt;&lt;div&gt;&lt;span style=&quot;background-color: light-dark(rgb(255, 255, 255), rgb(18, 18, 18)); color: light-dark(rgb(0, 0, 0), rgb(255, 255, 255));&quot;&gt;PUBLIC IP TO VPN&lt;/span&gt;&lt;/div&gt;" style="html=1;verticalLabelPosition=bottom;align=center;labelBackgroundColor=#ffffff;verticalAlign=top;strokeWidth=1;shadow=0;dashed=0;shape=mxgraph.ios7.icons.settings;" parent="1" vertex="1">
          <mxGeometry x="50" y="408.15999999999997" width="30" height="30" as="geometry" />
        </mxCell>
      </root>
    </mxGraphModel>
  </diagram>
</mxfile>
